<svg width="26" height="26" viewBox="0 0 26 26" fill="none" xmlns="http://www.w3.org/2000/svg">
<path d="M13 26C20.1797 26 26 20.1797 26 13C26 5.8203 20.1797 0 13 0C5.8203 0 0 5.8203 0 13C0 20.1797 5.8203 26 13 26Z" fill="#334C8C"/>
<path d="M16.2945 11.7701L16.079 13.5799C16.0697 13.6639 16.0295 13.7416 15.9664 13.7978C15.9032 13.854 15.8214 13.8849 15.7369 13.8843H13.8553V19.2554C13.8557 19.3195 13.8308 19.3812 13.786 19.4271C13.7411 19.4729 13.6799 19.4991 13.6158 19.5H11.6983C11.6664 19.4996 11.6349 19.4928 11.6056 19.4802C11.5763 19.4676 11.5498 19.4493 11.5275 19.4264C11.5053 19.4036 11.4878 19.3765 11.476 19.3469C11.4642 19.3173 11.4584 19.2856 11.4588 19.2537L11.4691 13.8843H10.0442C9.95349 13.8843 9.86648 13.8483 9.80232 13.7841C9.73816 13.72 9.70212 13.633 9.70212 13.5422V11.7325C9.70212 11.6418 9.73816 11.5548 9.80232 11.4906C9.86648 11.4264 9.95349 11.3904 10.0442 11.3904H11.4605V9.6354C11.4605 7.605 12.6682 6.5 14.4369 6.5H15.8857C15.9764 6.5 16.0634 6.53604 16.1276 6.6002C16.1917 6.66436 16.2278 6.75137 16.2278 6.84211V8.36618C16.2278 8.45692 16.1917 8.54393 16.1276 8.60809C16.0634 8.67225 15.9764 8.70829 15.8857 8.70829H14.9979C14.0366 8.72368 13.8553 9.18382 13.8553 9.87145V11.3853H15.9609C16.009 11.3861 16.0563 11.397 16.0998 11.4174C16.1434 11.4377 16.1821 11.467 16.2136 11.5033C16.2451 11.5396 16.2685 11.5821 16.2825 11.6281C16.2964 11.6741 16.3005 11.7225 16.2945 11.7701Z" fill="white"/>
</svg>
