<svg width="28" height="28" viewBox="0 0 28 28" fill="none" xmlns="http://www.w3.org/2000/svg">
<path d="M14 28C21.732 28 28 21.732 28 14C28 6.26801 21.732 0 14 0C6.26801 0 0 6.26801 0 14C0 21.732 6.26801 28 14 28Z" fill="#334C8C"/>
<path d="M17.548 12.6755L17.3159 14.6245C17.3058 14.715 17.2626 14.7986 17.1946 14.8592C17.1266 14.9197 17.0385 14.9529 16.9474 14.9524H14.9211V20.7366C14.9216 20.8056 14.8948 20.8721 14.8465 20.9214C14.7981 20.9708 14.7323 20.999 14.6632 21H12.5982C12.5639 20.9995 12.53 20.9923 12.4984 20.9787C12.4668 20.9651 12.4383 20.9454 12.4143 20.9208C12.3904 20.8962 12.3715 20.867 12.3588 20.8351C12.3461 20.8032 12.3398 20.7691 12.3403 20.7347L12.3514 14.9524H10.8169C10.7192 14.9524 10.6255 14.9136 10.5564 14.8445C10.4873 14.7754 10.4485 14.6817 10.4485 14.5839V12.635C10.4485 12.5373 10.4873 12.4436 10.5564 12.3745C10.6255 12.3054 10.7192 12.2666 10.8169 12.2666H12.3422V10.3766C12.3422 8.19 13.6427 7 15.5474 7H17.1077C17.2054 7 17.2991 7.03882 17.3682 7.10791C17.4373 7.177 17.4761 7.27071 17.4761 7.36842V9.00974C17.4761 9.10745 17.4373 9.20116 17.3682 9.27025C17.2991 9.33934 17.2054 9.37816 17.1077 9.37816H16.1516C15.1164 9.39474 14.9211 9.89026 14.9211 10.6308V12.2611H17.1887C17.2405 12.2619 17.2915 12.2737 17.3383 12.2956C17.3852 12.3175 17.427 12.349 17.4608 12.3881C17.4947 12.4272 17.52 12.473 17.535 12.5225C17.55 12.5721 17.5544 12.6242 17.548 12.6755Z" fill="white"/>
</svg>
