<svg width="24" height="21" viewBox="0 0 24 21" fill="none" xmlns="http://www.w3.org/2000/svg">
<path d="M8 16L12 20L16 16" stroke="#888C94" stroke-width="2" stroke-linecap="round" stroke-linejoin="round"/>
<path d="M12 11V20" stroke="#888C94" stroke-width="2" stroke-linecap="round" stroke-linejoin="round"/>
<path d="M20.8799 17.0899C21.7493 16.4786 22.4013 15.6061 22.7412 14.5991C23.0811 13.5921 23.0913 12.503 22.7703 11.4898C22.4493 10.4766 21.8138 9.59202 20.956 8.96449C20.0982 8.33697 19.0628 7.9991 17.9999 7.99993H16.7399C16.4392 6.82781 15.8764 5.73918 15.0941 4.81601C14.3117 3.89285 13.3301 3.15919 12.2231 2.67029C11.1162 2.18138 9.91278 1.94996 8.70346 1.99345C7.49414 2.03694 6.31045 2.3542 5.24149 2.92136C4.17253 3.48851 3.24616 4.29078 2.53212 5.26776C1.81808 6.24474 1.33498 7.37098 1.11919 8.56168C0.903403 9.75239 0.960543 10.9765 1.28631 12.142C1.61208 13.3074 2.19799 14.3837 2.99993 15.2899" stroke="#888C94" stroke-width="2" stroke-linecap="round" stroke-linejoin="round"/>
</svg>
