<svg width="26" height="26" viewBox="0 0 26 26" fill="none" xmlns="http://www.w3.org/2000/svg">
<path d="M13 26C20.1797 26 26 20.1797 26 13C26 5.8203 20.1797 0 13 0C5.8203 0 0 5.8203 0 13C0 20.1797 5.8203 26 13 26Z" fill="url(#paint0_linear_605_1999)"/>
<path d="M15.6274 6.5H10.3726C9.34596 6.50136 8.36173 6.9098 7.63577 7.63577C6.9098 8.36173 6.50136 9.34596 6.5 10.3726V15.6274C6.50136 16.654 6.9098 17.6383 7.63577 18.3642C8.36173 19.0902 9.34596 19.4986 10.3726 19.5H15.6274C16.6542 19.4991 17.6387 19.0908 18.3647 18.3647C19.0908 17.6387 19.4991 16.6542 19.5 15.6274V10.3726C19.4986 9.34596 19.0902 8.36173 18.3642 7.63577C17.6383 6.9098 16.654 6.50136 15.6274 6.5ZM18.1932 15.6274C18.1932 16.3079 17.9228 16.9605 17.4417 17.4417C16.9605 17.9228 16.3079 18.1932 15.6274 18.1932H10.3726C9.69214 18.1932 9.03952 17.9228 8.55834 17.4417C8.07717 16.9605 7.80684 16.3079 7.80684 15.6274V10.3726C7.80684 9.69214 8.07717 9.03952 8.55834 8.55834C9.03952 8.07717 9.69214 7.80684 10.3726 7.80684H15.6274C16.3079 7.80684 16.9605 8.07717 17.4417 8.55834C17.9228 9.03952 18.1932 9.69214 18.1932 10.3726V15.6274Z" fill="white"/>
<path d="M13 9.63879C12.3347 9.63846 11.6843 9.83544 11.131 10.2048C10.5777 10.5742 10.1464 11.0994 9.89169 11.714C9.63695 12.3285 9.57021 13.0048 9.69991 13.6573C9.82961 14.3098 10.1499 14.9092 10.6203 15.3796C11.0908 15.85 11.6901 16.1703 12.3426 16.3001C12.9951 16.4298 13.6714 16.363 14.286 16.1083C14.9005 15.8535 15.4257 15.4222 15.7951 14.8689C16.1645 14.3157 16.3615 13.6652 16.3612 13C16.3603 12.1088 16.0058 11.2544 15.3757 10.6243C14.7456 9.99411 13.8911 9.6397 13 9.63879ZM13 15.0526C12.594 15.0526 12.1972 14.9322 11.8596 14.7067C11.522 14.4811 11.259 14.1606 11.1036 13.7855C10.9482 13.4104 10.9076 12.9977 10.9868 12.5995C11.066 12.2014 11.2615 11.8356 11.5486 11.5485C11.8356 11.2615 12.2014 11.066 12.5995 10.9868C12.9977 10.9076 13.4104 10.9482 13.7855 11.1036C14.1606 11.259 14.4811 11.522 14.7067 11.8596C14.9322 12.1972 15.0526 12.594 15.0526 13C15.0526 13.5444 14.8364 14.0665 14.4514 14.4514C14.0665 14.8364 13.5444 15.0526 13 15.0526Z" fill="white"/>
<path d="M16.3817 10.4701C16.8409 10.4701 17.2131 10.0979 17.2131 9.63881C17.2131 9.17969 16.8409 8.8075 16.3817 8.8075C15.9226 8.8075 15.5504 9.17969 15.5504 9.63881C15.5504 10.0979 15.9226 10.4701 16.3817 10.4701Z" fill="white"/>
<defs>
<linearGradient id="paint0_linear_605_1999" x1="13" y1="25.8803" x2="13" y2="1.76184" gradientUnits="userSpaceOnUse">
<stop stop-color="#E09B3D"/>
<stop offset="0.24" stop-color="#C74C4D"/>
<stop offset="0.65" stop-color="#C21975"/>
<stop offset="1" stop-color="#7024C4"/>
</linearGradient>
</defs>
</svg>
