<svg width="16" height="16" viewBox="0 0 16 16" fill="none" xmlns="http://www.w3.org/2000/svg">
<path d="M4.98657 12.2332L7.05324 13.8331C7.31991 14.0998 7.91991 14.2331 8.31991 14.2331H10.8532C11.6532 14.2331 12.5199 13.6331 12.7199 12.8331L14.3199 7.96648C14.6532 7.03315 14.0532 6.23315 13.0532 6.23315H10.3866C9.98657 6.23315 9.65324 5.89982 9.71991 5.43315L10.0532 3.29982C10.1866 2.69982 9.78657 2.03315 9.18657 1.83315C8.65324 1.63315 7.98657 1.89982 7.71991 2.29982L4.98657 6.36648" stroke="#265AE8" stroke-width="1.5" stroke-miterlimit="10"/>
<path d="M1.58667 12.2331V5.69977C1.58667 4.76644 1.98667 4.43311 2.92 4.43311H3.58667C4.52 4.43311 4.92 4.76644 4.92 5.69977V12.2331C4.92 13.1664 4.52 13.4998 3.58667 13.4998H2.92C1.98667 13.4998 1.58667 13.1664 1.58667 12.2331Z" stroke="#265AE8" stroke-width="1.5" stroke-linecap="round" stroke-linejoin="round"/>
</svg>
