<svg width="18" height="18" viewBox="0 0 18 18" fill="none" xmlns="http://www.w3.org/2000/svg">
<path d="M17.8087 7.13656L13.8644 10.9815L14.7959 16.412C14.8364 16.6494 14.7389 16.8894 14.5438 17.0313C14.4337 17.1117 14.3026 17.1522 14.1715 17.1522C14.0708 17.1522 13.9695 17.1282 13.8771 17.0794L9 14.5155L4.12357 17.0788C3.9108 17.1915 3.65182 17.1731 3.45678 17.0306C3.26175 16.8888 3.16424 16.6488 3.20476 16.4113L4.13623 10.9808L0.191263 7.13656C0.0190267 6.96812 -0.0436622 6.7161 0.0310579 6.48751C0.105778 6.25892 0.303976 6.09111 0.542701 6.05628L5.9941 5.26476L8.432 0.324367C8.6454 -0.108123 9.3546 -0.108123 9.568 0.324367L12.0059 5.26476L17.4573 6.05628C17.696 6.09111 17.8942 6.25828 17.9689 6.48751C18.0437 6.71673 17.981 6.96749 17.8087 7.13656Z" fill="#FFA927"/>
</svg>
