<svg width="14" height="14" viewBox="0 0 14 14" fill="none" xmlns="http://www.w3.org/2000/svg">
<path d="M13.8512 5.55066L10.7834 8.54115L11.5079 12.7649C11.5394 12.9496 11.4636 13.1362 11.3119 13.2465C11.2262 13.3091 11.1242 13.3406 11.0223 13.3406C10.944 13.3406 10.8652 13.3219 10.7933 13.284L7 11.2898L3.20722 13.2835C3.04174 13.3711 2.8403 13.3569 2.68861 13.2461C2.53692 13.1357 2.46107 12.9491 2.49259 12.7644L3.21707 8.54066L0.14876 5.55066C0.0147986 5.41965 -0.0339595 5.22363 0.0241562 5.04584C0.0822718 4.86805 0.236426 4.73753 0.4221 4.71044L4.66208 4.09481L6.55822 0.252286C6.7242 -0.0840953 7.2758 -0.0840953 7.44178 0.252286L9.33792 4.09481L13.5779 4.71044C13.7636 4.73753 13.9177 4.86755 13.9758 5.04584C14.034 5.22413 13.9852 5.41916 13.8512 5.55066Z" fill="#FFA927"/>
</svg>
