<svg width="26" height="26" viewBox="0 0 26 26" fill="none" xmlns="http://www.w3.org/2000/svg">
<path d="M13 26C20.1797 26 26 20.1797 26 13C26 5.8203 20.1797 0 13 0C5.8203 0 0 5.8203 0 13C0 20.1797 5.8203 26 13 26Z" fill="#00A6DE"/>
<path d="M19.4745 9.06578C19.1673 9.52736 18.7918 9.93971 18.361 10.2888C18.3067 10.3341 18.2631 10.3909 18.2335 10.4551C18.204 10.5193 18.1891 10.5893 18.1899 10.66V10.7027C18.1849 11.6298 18.0146 12.5484 17.687 13.4156C17.3495 14.3258 16.848 15.1665 16.2074 15.8959C15.3466 16.8759 14.2392 17.6076 13.0002 18.0152C12.186 18.2795 11.3348 18.4117 10.4789 18.4069C9.12095 18.4068 7.78724 18.0474 6.61309 17.3652C6.57101 17.3413 6.53789 17.3043 6.51875 17.2599C6.49961 17.2154 6.4955 17.1659 6.50704 17.1189C6.51887 17.0727 6.54585 17.0317 6.58367 17.0026C6.62149 16.9734 6.66798 16.9578 6.71572 16.9581H7.04072C8.07268 16.9607 9.0818 16.6545 9.93835 16.0789C9.42789 15.9963 8.95015 15.7743 8.55779 15.4375C8.16543 15.1006 7.87367 14.662 7.71467 14.17C7.70653 14.1453 7.70505 14.119 7.71039 14.0936C7.71572 14.0682 7.72768 14.0447 7.74505 14.0254C7.76242 14.0061 7.78459 13.9917 7.80929 13.9838C7.834 13.9758 7.86036 13.9746 7.88572 13.9801C8.04139 14.0094 8.19942 14.0243 8.35783 14.0246H8.41769C7.92434 13.7979 7.5072 13.4332 7.21669 12.9746C6.92619 12.5159 6.77476 11.9829 6.78072 11.44C6.7809 11.4146 6.78765 11.3897 6.80032 11.3676C6.81299 11.3456 6.83114 11.3273 6.85302 11.3143C6.87489 11.3014 6.89974 11.2944 6.92514 11.2939C6.95054 11.2935 6.97563 11.2996 6.99796 11.3117C7.19862 11.4237 7.41395 11.5072 7.63769 11.5597C7.19544 11.1222 6.91097 10.5502 6.82893 9.93348C6.74689 9.31679 6.87192 8.69031 7.1844 8.15236C7.19623 8.1317 7.21288 8.11421 7.23295 8.10141C7.25302 8.0886 7.27589 8.08086 7.29961 8.07884C7.32333 8.07682 7.34719 8.08059 7.36913 8.08982C7.39107 8.09905 7.41044 8.11346 7.42559 8.13183C8.0434 8.89678 8.80854 9.52986 9.67564 9.99353C10.5427 10.4572 11.4941 10.742 12.4734 10.831H12.487C12.5014 10.8306 12.5156 10.8273 12.5286 10.8212C12.5417 10.8152 12.5534 10.8065 12.563 10.7958C12.5726 10.7851 12.5799 10.7725 12.5845 10.7589C12.5891 10.7452 12.5908 10.7308 12.5897 10.7164C12.5515 10.3732 12.5735 10.0258 12.6547 9.69012C12.765 9.23377 12.9916 8.81374 13.3123 8.47085C13.633 8.12796 14.037 7.87387 14.4849 7.73328C14.7723 7.6435 15.0716 7.59737 15.3727 7.59644C16.0554 7.59565 16.7149 7.84447 17.2269 8.29604C17.2932 8.35539 17.3791 8.38826 17.4681 8.38841C17.497 8.38779 17.5257 8.38377 17.5536 8.37644C18.0347 8.25487 18.4957 8.06415 18.922 7.81025C18.9476 7.79451 18.9773 7.78705 19.0072 7.78887C19.0372 7.7907 19.0658 7.80174 19.0892 7.82046C19.1126 7.83919 19.1297 7.8647 19.138 7.89349C19.1464 7.92229 19.1456 7.95296 19.1359 7.98131C18.9935 8.42909 18.7398 8.83342 18.3986 9.15643C18.706 9.08314 19.006 8.9818 19.2949 8.85367C19.3234 8.84267 19.3547 8.84081 19.3843 8.84837C19.4139 8.85593 19.4404 8.87252 19.4602 8.89584C19.4799 8.91917 19.4919 8.94806 19.4945 8.97852C19.4971 9.00897 19.4901 9.03947 19.4745 9.06578Z" fill="white"/>
</svg>
